<svg id="Capa_1" data-name="Capa 1" xmlns="http://www.w3.org/2000/svg" viewBox="0 0 1196.63 495"><defs><style>.cls-1,.cls-10,.cls-11,.cls-12,.cls-2,.cls-3,.cls-4,.cls-5,.cls-6,.cls-7,.cls-8,.cls-9{fill:none;stroke-miterlimit:10;}.cls-1,.cls-10,.cls-11,.cls-12,.cls-4,.cls-5,.cls-6,.cls-7,.cls-8,.cls-9{stroke:#f7d337;}.cls-2{stroke:#fbf1b1;}.cls-3{stroke:#f9b43b;}.cls-10,.cls-11,.cls-12,.cls-4,.cls-5,.cls-6,.cls-7,.cls-8,.cls-9{stroke-width:2px;}.cls-5{stroke-dasharray:0.02 1.95 0.01 0;}.cls-6{stroke-dasharray:11.79 7.85 0.02 1.95 0.01 0;}.cls-7{stroke-dasharray:0.02 1.88 0.01 0;}.cls-8{stroke-dasharray:11.41 7.6 0.02 1.88 0.01 0;}.cls-9{stroke-dasharray:0.02 1.96 0.01 0;}.cls-10{stroke-dasharray:11.86 7.89 0.02 1.96 0.01 0;}.cls-11{stroke-dasharray:0.02 1.93 0.01 0;}.cls-12{stroke-dasharray:11.71 7.8 0.02 1.93 0.01 0;}</style></defs><title>backRenaultWireframe</title><polygon class="cls-1" points="751.78 366.25 622.39 115.5 108.65 115.5 108.65 366.25 751.78 366.25"/><polygon class="cls-1" points="1195.81 494.12 1040.44 186.5 267.24 186.5 267.24 494.12 1195.81 494.12"/><polygon class="cls-1" points="753.86 494.5 498.03 0.5 0.81 0.5 0.81 494.5 753.86 494.5"/><polygon class="cls-2" points="1103.81 439.65 951.35 147.94 18.81 147.94 18.81 439.65 1103.81 439.65"/><polygon class="cls-3" points="628.18 491.12 436.23 114.5 0.81 114.5 0.81 491.12 628.18 491.12"/><polyline class="cls-4" points="602.34 312.5 596.34 312.5 593.67 307.13"/><line class="cls-5" x1="590.17" y1="300.09" x2="589.3" y2="298.32"/><line class="cls-6" x1="589.3" y1="298.32" x2="445.01" y2="7.87"/><polyline class="cls-4" points="445.01 7.88 442.34 2.5 448.34 2.5"/><line class="cls-7" x1="455.94" y1="2.5" x2="457.85" y2="2.5"/><line class="cls-8" x1="457.85" y1="2.5" x2="604.34" y2="2.5"/><polyline class="cls-4" points="604.34 2.5 610.34 2.5 613.06 7.85"/><line class="cls-9" x1="616.65" y1="14.88" x2="617.55" y2="16.65"/><line class="cls-10" x1="617.55" y1="16.65" x2="765.61" y2="307.15"/><polyline class="cls-4" points="765.61 307.15 768.34 312.5 762.34 312.5"/><line class="cls-11" x1="754.54" y1="312.5" x2="752.58" y2="312.5"/><line class="cls-12" x1="752.58" y1="312.5" x2="602.34" y2="312.5"/><polygon class="cls-1" points="1087.97 366.25 1087.97 115.5 574.23 115.5 444.84 366.25 1087.97 366.25"/><polygon class="cls-1" points="929.38 494.12 929.38 186.5 156.18 186.5 0.81 494.12 929.38 494.12"/><polygon class="cls-1" points="1195.81 494.5 1195.81 0.5 698.59 0.5 442.76 494.5 1195.81 494.5"/><polygon class="cls-2" points="1177.81 439.65 1177.81 147.94 245.27 147.94 92.81 439.65 1177.81 439.65"/><polygon class="cls-3" points="1195.81 491.12 1195.81 114.5 760.39 114.5 568.44 491.12 1195.81 491.12"/><polyline class="cls-4" points="602.95 307.13 600.28 312.5 594.28 312.5"/><line class="cls-5" x1="607.32" y1="298.32" x2="606.45" y2="300.09"/><line class="cls-6" x1="751.61" y1="7.87" x2="607.32" y2="298.32"/><polyline class="cls-4" points="748.28 2.5 754.28 2.5 751.61 7.88"/><line class="cls-7" x1="738.77" y1="2.5" x2="740.68" y2="2.5"/><line class="cls-8" x1="592.28" y1="2.5" x2="738.77" y2="2.5"/><polyline class="cls-4" points="583.56 7.85 586.28 2.5 592.28 2.5"/><line class="cls-9" x1="579.07" y1="16.65" x2="579.97" y2="14.88"/><line class="cls-10" x1="431.01" y1="307.15" x2="579.07" y2="16.65"/><polyline class="cls-4" points="434.28 312.5 428.28 312.5 431.01 307.15"/><line class="cls-11" x1="444.04" y1="312.5" x2="442.08" y2="312.5"/><line class="cls-12" x1="594.28" y1="312.5" x2="444.04" y2="312.5"/></svg>