<svg id="Capa_1" data-name="Capa 1" xmlns="http://www.w3.org/2000/svg" viewBox="0 0 1195 494"><defs><style>.cls-1{fill:#f7d337;}.cls-2{fill:#fbf1b1;}.cls-3{fill:#f9b43b;}.cls-10,.cls-11,.cls-12,.cls-4,.cls-5,.cls-6,.cls-7,.cls-8,.cls-9{fill:none;stroke:#f7d337;stroke-miterlimit:10;stroke-width:2px;}.cls-5{stroke-dasharray:0.02 1.95 0.01 0;}.cls-6{stroke-dasharray:11.79 7.85 0.02 1.95 0.01 0;}.cls-7{stroke-dasharray:0.02 1.88 0.01 0;}.cls-8{stroke-dasharray:11.41 7.6 0.02 1.88 0.01 0;}.cls-9{stroke-dasharray:0.02 1.96 0.01 0;}.cls-10{stroke-dasharray:11.86 7.89 0.02 1.96 0.01 0;}.cls-11{stroke-dasharray:0.02 1.93 0.01 0;}.cls-12{stroke-dasharray:11.71 7.8 0.02 1.93 0.01 0;}</style></defs><title>backRenault</title><polygon class="cls-1" points="750.97 365.75 621.58 116 107.84 116 107.84 365.75 750.97 365.75"/><polygon class="cls-1" points="1195 493.62 1039.63 186 584.63 186 584.63 493.62 1195 493.62"/><polygon class="cls-1" points="753.05 494 497.22 0 0 0 0 494 753.05 494"/><polygon class="cls-2" points="1103 439.15 950.54 147.44 18 147.44 18 439.15 1103 439.15"/><polygon class="cls-3" points="627.37 490.62 435.42 114 0 114 0 490.62 627.37 490.62"/><polyline class="cls-4" points="601.53 312 595.53 312 592.86 306.63"/><line class="cls-5" x1="589.36" y1="299.59" x2="588.49" y2="297.82"/><line class="cls-6" x1="588.49" y1="297.82" x2="444.2" y2="7.37"/><polyline class="cls-4" points="444.2 7.38 441.53 2 447.53 2"/><line class="cls-7" x1="455.13" y1="2" x2="457.04" y2="2"/><line class="cls-8" x1="457.04" y1="2" x2="603.53" y2="2"/><polyline class="cls-4" points="603.53 2 609.53 2 612.25 7.35"/><line class="cls-9" x1="615.84" y1="14.38" x2="616.74" y2="16.15"/><line class="cls-10" x1="616.74" y1="16.15" x2="764.8" y2="306.65"/><polyline class="cls-4" points="764.8 306.65 767.53 312 761.53 312"/><line class="cls-11" x1="753.73" y1="312" x2="751.77" y2="312"/><line class="cls-12" x1="751.77" y1="312" x2="601.53" y2="312"/></svg>