<svg id="Capa_1" data-name="Capa 1" xmlns="http://www.w3.org/2000/svg" viewBox="0 0 1650.13 682.15"><defs><style>.cls-1{fill:#f7d337;}.cls-2{fill:#fbf1b1;}.cls-3{fill:#f9b43b;}.cls-10,.cls-11,.cls-12,.cls-4,.cls-5,.cls-6,.cls-7,.cls-8,.cls-9{fill:none;stroke:#f7d337;stroke-miterlimit:10;stroke-width:2.76px;}.cls-5{stroke-dasharray:0.02 2.69 0.01 0;}.cls-6{stroke-dasharray:16.28 10.85 0.02 2.69 0.01 0;}.cls-7{stroke-dasharray:0.02 2.61 0.01 0;}.cls-8{stroke-dasharray:15.76 10.5 0.02 2.61 0.01 0;}.cls-9{stroke-dasharray:0.02 2.71 0.01 0;}.cls-10{stroke-dasharray:16.37 10.91 0.02 2.71 0.01 0;}.cls-11{stroke-dasharray:0.02 2.67 0.01 0;}.cls-12{stroke-dasharray:16.17 10.77 0.02 2.67 0.01 0;}</style></defs><title>backRenaultMirror</title><polygon class="cls-1" points="613.14 505.05 791.82 160.18 1501.21 160.18 1501.21 505.05 613.14 505.05"/><polygon class="cls-1" points="0 681.62 214.54 256.84 842.83 256.84 842.83 681.62 0 681.62"/><polygon class="cls-1" points="610.27 682.15 963.54 0 1650.13 0 1650.13 682.15 610.27 682.15"/><polygon class="cls-2" points="127.04 606.4 337.57 203.59 1625.28 203.59 1625.28 606.4 127.04 606.4"/><polygon class="cls-3" points="783.82 677.48 1048.88 157.42 1650.13 157.42 1650.13 677.48 783.82 677.48"/><polyline class="cls-4" points="819.5 430.83 827.79 430.83 831.48 423.41"/><line class="cls-5" x1="836.3" y1="413.69" x2="837.51" y2="411.25"/><line class="cls-6" x1="837.51" y1="411.25" x2="1036.75" y2="10.18"/><polyline class="cls-4" points="1036.75 10.18 1040.44 2.76 1032.15 2.76"/><line class="cls-7" x1="1021.66" y1="2.76" x2="1019.02" y2="2.76"/><line class="cls-8" x1="1019.02" y1="2.76" x2="816.74" y2="2.76"/><polyline class="cls-4" points="816.74 2.76 808.46 2.76 804.69 10.14"/><line class="cls-9" x1="799.74" y1="19.86" x2="798.5" y2="22.3"/><line class="cls-10" x1="798.5" y1="22.3" x2="594.04" y2="423.45"/><polyline class="cls-4" points="594.04 423.45 590.28 430.83 598.57 430.83"/><line class="cls-11" x1="609.33" y1="430.83" x2="612.04" y2="430.83"/><line class="cls-12" x1="612.04" y1="430.83" x2="819.5" y2="430.83"/></svg>