<svg id="Capa_1" data-name="Capa 1" xmlns="http://www.w3.org/2000/svg" viewBox="0 0 1196.31 495"><defs><style>.cls-1,.cls-10,.cls-11,.cls-12,.cls-2,.cls-3,.cls-4,.cls-5,.cls-6,.cls-7,.cls-8,.cls-9{fill:none;stroke-miterlimit:10;}.cls-1,.cls-10,.cls-11,.cls-12,.cls-4,.cls-5,.cls-6,.cls-7,.cls-8,.cls-9{stroke:#f7d337;}.cls-2{stroke:#fbf1b1;}.cls-3{stroke:#f9b43b;}.cls-10,.cls-11,.cls-12,.cls-4,.cls-5,.cls-6,.cls-7,.cls-8,.cls-9{stroke-width:2px;}.cls-5{stroke-dasharray:0.02 1.95 0.01 0;}.cls-6{stroke-dasharray:11.79 7.85 0.02 1.95 0.01 0;}.cls-7{stroke-dasharray:0.02 1.88 0.01 0;}.cls-8{stroke-dasharray:11.41 7.6 0.02 1.88 0.01 0;}.cls-9{stroke-dasharray:0.02 1.96 0.01 0;}.cls-10{stroke-dasharray:11.86 7.89 0.02 1.96 0.01 0;}.cls-11{stroke-dasharray:0.02 1.93 0.01 0;}.cls-12{stroke-dasharray:11.71 7.8 0.02 1.93 0.01 0;}</style></defs><title>backRenaultWire</title><polygon class="cls-1" points="751.47 366.25 622.08 115.5 108.34 115.5 108.34 366.25 751.47 366.25"/><polygon class="cls-1" points="1195.5 494.12 1040.13 186.5 266.93 186.5 266.93 494.12 1195.5 494.12"/><polygon class="cls-1" points="753.55 494.5 497.72 0.5 0.5 0.5 0.5 494.5 753.55 494.5"/><polygon class="cls-2" points="1103.5 439.65 951.04 147.94 18.5 147.94 18.5 439.65 1103.5 439.65"/><polygon class="cls-3" points="627.87 491.12 435.92 114.5 0.5 114.5 0.5 491.12 627.87 491.12"/><polyline class="cls-4" points="602.03 312.5 596.03 312.5 593.36 307.13"/><line class="cls-5" x1="589.86" y1="300.09" x2="588.99" y2="298.32"/><line class="cls-6" x1="588.99" y1="298.32" x2="444.7" y2="7.87"/><polyline class="cls-4" points="444.7 7.88 442.03 2.5 448.03 2.5"/><line class="cls-7" x1="455.63" y1="2.5" x2="457.54" y2="2.5"/><line class="cls-8" x1="457.54" y1="2.5" x2="604.03" y2="2.5"/><polyline class="cls-4" points="604.03 2.5 610.03 2.5 612.75 7.85"/><line class="cls-9" x1="616.34" y1="14.88" x2="617.24" y2="16.65"/><line class="cls-10" x1="617.24" y1="16.65" x2="765.3" y2="307.15"/><polyline class="cls-4" points="765.3 307.15 768.03 312.5 762.03 312.5"/><line class="cls-11" x1="754.23" y1="312.5" x2="752.27" y2="312.5"/><line class="cls-12" x1="752.27" y1="312.5" x2="602.03" y2="312.5"/></svg>